# xmcd
#
# Track frame offsets: 
#        150
#        15893
#        31346
#        48385
#        62829
#        79727
#        97160
#        116097
#        133603
#        150868
#        168486
#
# Disc length: 2452 seconds
#
# Revision: 2
# Processed by: cddbd v1.5.2PL0 Copyright (c) Steve Scherf et al.
# Submitted via: ExactAudioCopy v0.99pb5
#
DISCID=8209920b
DTITLE=Somersault - By Your Side
DYEAR=2003
DGENRE=Indie
TTITLE0=By Your Side
TTITLE1=Before You Die
TTITLE2=Symphony
TTITLE3=Every Moment
TTITLE4=Morning Glow
TTITLE5=Frozen Tears
TTITLE6=Amazons and Gladiators
TTITLE7=Lean On The Stars
TTITLE8=If You Dare
TTITLE9=Sombody Shot Jesus
TTITLE10=Can't Remember
EXTD=
EXTT0=
EXTT1=
EXTT2=
EXTT3=
EXTT4=
EXTT5=
EXTT6=
EXTT7=
EXTT8=
EXTT9=
EXTT10=
PLAYORDER=
